<?xml version="1.0" encoding="UTF-8"?>
<svg version="1.1" xmlns="http://www.w3.org/2000/svg" width="499" height="171">
<path d="M0 0 C164.67 0 329.34 0 499 0 C499 56.43 499 112.86 499 171 C334.33 171 169.66 171 0 171 C0 114.57 0 58.14 0 0 Z " fill="#F3F3F3" transform="translate(0,0)"/>
<path d="M0 0 C5.445 -0.0825 10.89 -0.165 16.5 -0.25 C18.20220703 -0.28641602 19.90441406 -0.32283203 21.65820312 -0.36035156 C35.67248918 -0.5379118 35.67248918 -0.5379118 42 4 C45.34024036 7.31240502 47.27472336 11.28417629 47.5625 16 C47.1638456 21.94464061 44.30267266 26.99321314 40 31 C40.54269531 31.36351563 41.08539063 31.72703125 41.64453125 32.1015625 C46.10207851 35.233893 49.31186482 37.61906912 51 43 C51.99778406 49.08875049 50.97802837 53.25277874 47.421875 58.27734375 C43.84427637 62.61174209 40.36816552 64.54291534 35 66 C32.21608917 66.16232207 29.53702387 66.23453462 26.7578125 66.1953125 C26.07581787 66.19329834 25.39382324 66.19128418 24.69116211 66.18920898 C22.16903862 66.17882757 19.64701181 66.15090558 17.125 66.125 C8.648125 66.063125 8.648125 66.063125 0 66 C0 44.22 0 22.44 0 0 Z " fill="#050505" transform="translate(198,72)"/>
<path d="M0 0 C3.25457482 1.89172161 5.3998525 4.16227875 7.5 7.3125 C7.83 4.6725 8.16 2.0325 8.5 -0.6875 C11.47 -0.6875 14.44 -0.6875 17.5 -0.6875 C17.54963039 5.71711105 17.58582861 12.12160883 17.60986328 18.52636719 C17.61988854 20.70281933 17.63351222 22.87925812 17.65087891 25.05566406 C17.67528028 28.19339303 17.68651813 31.33094308 17.6953125 34.46875 C17.70563507 35.43365356 17.71595764 36.39855713 17.72659302 37.3927002 C17.72814841 46.86896137 16.2351055 55.21121401 9.5 62.3125 C1.75498967 67.96740259 -6.05067591 69.74018277 -15.5 68.3125 C-20.77955305 66.7684062 -25.64527233 64.28060202 -29.5 60.3125 C-31.58834651 56.27983087 -32.5 53.87647781 -32.5 49.3125 C-29.86 49.3125 -27.22 49.3125 -24.5 49.3125 C-24.25765625 49.86679688 -24.0153125 50.42109375 -23.765625 50.9921875 C-23.43046875 51.71664062 -23.0953125 52.44109375 -22.75 53.1875 C-22.42515625 53.90679687 -22.1003125 54.62609375 -21.765625 55.3671875 C-20.1913182 57.78695536 -19.23703463 58.40171203 -16.5 59.3125 C-13.19761149 59.66746078 -13.19761149 59.66746078 -9.625 59.625 C-8.43132812 59.64175781 -7.23765625 59.65851563 -6.0078125 59.67578125 C-0.8609863 59.14275805 2.37001588 57.5316934 5.875 53.75 C8.04177269 49.16644239 7.85446263 45.29466925 7.5 40.3125 C7.05269531 40.72242188 6.60539062 41.13234375 6.14453125 41.5546875 C5.53996094 42.09351563 4.93539062 42.63234375 4.3125 43.1875 C3.72082031 43.72117188 3.12914062 44.25484375 2.51953125 44.8046875 C-3.25945643 49.11936689 -9.56225855 49.04231436 -16.5 48.3125 C-24.3829615 45.92176577 -29.3671081 40.24985427 -33.5 33.3125 C-35.6658527 26.72888153 -35.7915683 18.10698301 -32.8125 11.8125 C-25.98523058 0.40976231 -12.6698164 -5.91735304 0 0 Z " fill="#0C0C0C" transform="translate(394.5,88.6875)"/>
<path d="M0 0 C2.97 0 5.94 0 9 0 C9 22.77 9 45.54 9 69 C6.03 69 3.06 69 0 69 C-0.495 65.04 -0.495 65.04 -1 61 C-2.051875 62.3921875 -2.051875 62.3921875 -3.125 63.8125 C-5.5634281 67.03983132 -8.26931656 68.47727207 -12 70 C-17.93627253 70.75651694 -24.65059547 71.24494166 -30.0625 68.3125 C-36.29173691 63.40863265 -41.47136159 58.05474856 -43 50 C-43.6302284 41.6252341 -43.59897643 33.62030758 -38.265625 26.7734375 C-32.79459995 20.94191855 -27.72703133 17.93435957 -19.625 17.5625 C-14.20029454 17.7266589 -9.50039507 18.88982598 -5 22 C-3.68 23.65 -2.36 25.3 -1 27 C-0.67 18.09 -0.34 9.18 0 0 Z " fill="#0C0C0C" transform="translate(345,69)"/>
<path d="M0 0 C5.49890428 5.74885448 8.04153592 11.44873145 8.3125 19.4375 C7.9548412 27.66365242 5.19193169 34.32645105 -0.44140625 40.3671875 C-6.76833277 45.64190378 -14.19696701 46.555979 -22.20703125 46.24609375 C-30.18432355 45.27325323 -34.37919132 41.15961696 -39.5859375 35.2890625 C-44.4309978 28.26031305 -43.93768307 20.07429818 -43.25 11.875 C-41.3030246 3.96387213 -34.74866828 -0.79255448 -28.25 -5.125 C-17.4770981 -7.8895692 -9.12286756 -5.96495187 0 0 Z " fill="#070707" transform="translate(119.25,93.125)"/>
<path d="M0 0 C0 2.31 0 4.62 0 7 C-1.03060547 7.03867188 -1.03060547 7.03867188 -2.08203125 7.078125 C-2.98308594 7.13484375 -3.88414062 7.1915625 -4.8125 7.25 C-5.70582031 7.29640625 -6.59914062 7.3428125 -7.51953125 7.390625 C-10.07190805 7.80775783 -10.07190805 7.80775783 -11.76171875 9.609375 C-13.47858184 12.60225629 -13.47858184 12.60225629 -14 19 C-7.07 19 -0.14 19 7 19 C7 14.05 7 9.1 7 4 C9.64 4 12.28 4 15 4 C15 8.95 15 13.9 15 19 C20.28 19 25.56 19 31 19 C31 21.31 31 23.62 31 26 C25.72 26 20.44 26 15 26 C15.07418634 30.03931841 15.1571745 34.07698848 15.26245117 38.11547852 C15.29559806 39.48775958 15.32366171 40.86017362 15.34643555 42.23266602 C15.38016766 44.21137766 15.4340149 46.18971376 15.48828125 48.16796875 C15.51446533 49.35672607 15.54064941 50.5454834 15.56762695 51.77026367 C16.07415103 55.55389269 17.27788054 58.27788054 20 61 C21.84891946 61.23363881 23.70488031 61.41303635 25.5625 61.5625 C26.57441406 61.64628906 27.58632812 61.73007813 28.62890625 61.81640625 C29.41136719 61.87699219 30.19382813 61.93757813 31 62 C31 64.31 31 66.62 31 69 C28.77144426 69.0814222 26.54202345 69.13938079 24.3125 69.1875 C22.45044922 69.23970703 22.45044922 69.23970703 20.55078125 69.29296875 C15.64229832 68.88797841 13.18815762 67.22210498 9.8125 63.75 C4.98898566 56.43156445 5.7595655 48.52917646 5.875 40.0625 C5.88402344 38.80630859 5.89304688 37.55011719 5.90234375 36.25585938 C5.92580663 33.17049041 5.96167428 30.08522014 6 27 C-0.6 27 -7.2 27 -14 27 C-14 40.86 -14 54.72 -14 69 C-16.97 69 -19.94 69 -23 69 C-23 55.14 -23 41.28 -23 27 C-26.3 27 -29.6 27 -33 27 C-33 24.36 -33 21.72 -33 19 C-29.7 19 -26.4 19 -23 19 C-23.12375 17.2365625 -23.12375 17.2365625 -23.25 15.4375 C-23.22845868 9.35207649 -20.77087764 5.77087764 -16.5625 1.5625 C-11.14000897 -0.81578554 -5.8347224 -0.31164689 0 0 Z " fill="#0B0B0B" transform="translate(160,69)"/>
<path d="M0 0 C6.9067043 3.93560197 11.25700796 9.30730344 13.625 16.9375 C13.625 19.9075 13.625 22.8775 13.625 25.9375 C0.095 25.9375 -13.435 25.9375 -27.375 25.9375 C-24.83598599 34.44701493 -24.83598599 34.44701493 -19.375 39.9375 C-15.19578179 42.0271091 -9.92590618 41.37714368 -5.375 40.9375 C-1.59859074 39.48724397 0.37660547 37.31009179 2.625 33.9375 C4.7890625 33.64453125 4.7890625 33.64453125 7.25 33.75 C8.06726563 33.77707031 8.88453125 33.80414063 9.7265625 33.83203125 C10.35304688 33.86683594 10.97953125 33.90164062 11.625 33.9375 C10.32249092 39.87115245 7.28524512 43.27587883 2.625 46.9375 C-3.64283841 50.84115375 -11.23886685 50.85575243 -18.375 49.9375 C-25.56808598 47.52910068 -30.68638834 42.6425704 -34.40625 36.1328125 C-37.49953295 29.23020887 -37.58406458 20.78001941 -35.25 13.625 C-32.06034047 6.54013414 -27.20941958 2.01544338 -20.1484375 -1.17578125 C-13.18369461 -3.40253708 -6.64745711 -3.00433122 0 0 Z " fill="#060606" transform="translate(454.375,89.0625)"/>
<path d="M0 0 C2.90722154 2.66941201 5.23324647 5.46649293 7 9 C7.039992 10.99960012 7.04346799 13.00047242 7 15 C4.03 15 1.06 15 -2 15 C-2.20625 14.0925 -2.4125 13.185 -2.625 12.25 C-4.382743 8.09533472 -6.06099135 7.13325064 -10 5 C-16.0218321 4.06713071 -23.70851148 3.30083546 -28.9375 7 C-31.80380719 11.16917409 -31.79190864 13.01097559 -31 18 C-27.90833767 22.76631276 -22.11340224 24.26810272 -16.79101562 25.51928711 C-15.29565345 25.81301897 -13.79894379 26.0999662 -12.30102539 26.38037109 C-3.17700629 28.09384736 3.41699031 29.96139262 9 37.8125 C10.80428546 43.56365992 10.87898571 48.672468 8.4375 54.25 C5.36473974 59.6623707 1.22349056 62.16619104 -4.5 64.3125 C-13.56346881 66.14992837 -24.68644948 66.55437985 -33 62 C-35.875 59.5625 -35.875 59.5625 -38 57 C-38.5775 56.401875 -39.155 55.80375 -39.75 55.1875 C-41.63603061 51.88694643 -41.68561445 48.77262662 -42 45 C-39.36 45 -36.72 45 -34 45 C-33.76925781 45.54269531 -33.53851563 46.08539063 -33.30078125 46.64453125 C-31.23561939 51.17482703 -29.78164664 53.96780018 -25 56 C-17.64895356 58.19903099 -10.34474805 57.82094908 -3.55859375 54.265625 C-0.56654834 51.83599414 -0.03859856 49.30327437 0.4375 45.5625 C-0.00427471 41.96519166 -0.55681769 40.61579812 -3.1652832 38.17114258 C-8.03378671 35.06346309 -14.43404552 34.54342146 -20.00976562 33.41601562 C-28.65608601 31.50358962 -34.94533427 28.48361428 -40 21 C-41.66026461 16.01920617 -41.59903425 11.69726371 -39.875 6.8125 C-31.34268553 -5.98597171 -12.66673056 -8.01838907 0 0 Z " fill="#080808" transform="translate(64,74)"/>
<path d="M0 0 C4.39792831 2.51561499 6.99277217 5.75711191 8.75 10.5 C9.76804204 16.75508525 8.90447138 21.95248137 5.75 27.5 C2.23800602 31.55230075 -0.64377519 34.15078793 -6.01953125 34.87109375 C-11.82312046 34.99774461 -16.33383346 35.04540698 -20.84765625 31.10546875 C-25.35986571 25.9396802 -26.94848838 20.80058161 -26.6328125 13.9609375 C-25.75034818 8.28795259 -23.66576382 4.62683243 -19.1875 1.0625 C-12.96521819 -2.24722437 -6.55369387 -2.82293835 0 0 Z " fill="#F0F0F0" transform="translate(336.25,96.5)"/>
<path d="M0 0 C4.46876455 3.07848225 8.07974831 6.73924494 9.8125 11.9375 C10.76364187 19.46510852 9.41832136 24.89082008 4.8125 30.9375 C1.02700669 34.81763064 -2.32376347 35.27818058 -7.5625 35.5625 C-13.13721808 35.38431266 -16.53347241 34.38958844 -20.6640625 30.625 C-25.30348724 25.48594491 -25.77668676 20.65226702 -25.609375 13.91796875 C-24.8271296 8.39154986 -22.11508361 4.74826036 -18.125 1 C-12.60715284 -2.02591618 -5.84853955 -1.94951318 0 0 Z " fill="#F0F0F0" transform="translate(109.1875,96.0625)"/>
<path d="M0 0 C4.3966905 2.50611359 6.94280288 5.79462501 8.75 10.5 C9.86805664 16.16943765 8.76390724 20.78375379 5.9609375 25.7734375 C3.48314975 29.30628325 0.79231553 31.15256149 -3.25 32.5 C-8.71470748 32.98102043 -13.60928179 33.21594976 -18.6875 31 C-23.39338481 26.40889287 -26.50171438 22.23987917 -26.875 15.5 C-26.56489203 10.19552165 -24.91032012 6.3557741 -21.25 2.5 C-14.85866868 -2.41854628 -7.3768167 -3.10602808 0 0 Z " fill="#F0F0F0" transform="translate(394.25,96.5)"/>
<path d="M0 0 C4.04207139 -0.08108167 8.08250908 -0.14054629 12.125 -0.1875 C13.26710937 -0.21263672 14.40921875 -0.23777344 15.5859375 -0.26367188 C26.2348398 -0.35654021 26.2348398 -0.35654021 31 3 C33.40777323 5.88932788 33.96115399 7.69478136 34.4375 11.4375 C33.91606726 15.68345227 32.73082959 17.73817577 30 21 C26.65231517 23.19744038 23.87223126 23.23404148 19.921875 23.1953125 C18.18164062 23.18564453 18.18164062 23.18564453 16.40625 23.17578125 C15.1996875 23.15902344 13.993125 23.14226562 12.75 23.125 C10.91695312 23.11146484 10.91695312 23.11146484 9.046875 23.09765625 C6.03116634 23.07409603 3.01555842 23.03822539 0 23 C0 15.41 0 7.82 0 0 Z " fill="#EFEFEF" transform="translate(206,107)"/>
<path d="M0 0 C2.64 0 5.28 0 8 0 C8.33 2.97 8.66 5.94 9 9 C9.350625 8.2575 9.70125 7.515 10.0625 6.75 C12.47979598 3.31899926 15.07545223 1.36798522 19 0 C22.03566425 -0.30404904 24.96230373 -0.24797521 28 0 C28 2.64 28 5.28 28 8 C27.34773438 8.01417969 26.69546875 8.02835938 26.0234375 8.04296875 C19.85052005 8.36474296 19.85052005 8.36474296 14.5 11.1875 C10.20541874 16.01890392 9.74774827 20.83781756 9.5859375 27.1484375 C9.56657135 27.80582916 9.5472052 28.46322083 9.5272522 29.14053345 C9.46797539 31.21856135 9.42128206 33.29664624 9.375 35.375 C9.33677222 36.7929915 9.29771777 38.21096097 9.2578125 39.62890625 C9.16231829 43.08573461 9.07809811 46.54272983 9 50 C6.03 50 3.06 50 0 50 C0 33.5 0 17 0 0 Z " fill="#0B0B0B" transform="translate(255,88)"/>
<path d="M0 0 C3.56295812 -0.08104454 7.12406707 -0.14052442 10.6875 -0.1875 C11.69490234 -0.21263672 12.70230469 -0.23777344 13.74023438 -0.26367188 C22.90758597 -0.35443773 22.90758597 -0.35443773 27 3 C27.8971875 3.5878125 27.8971875 3.5878125 28.8125 4.1875 C30.82275997 7.25579153 30.61125887 10.51648172 30 14 C27 19.5 27 19.5 24 21 C22.18658158 21.08471364 20.37005839 21.10721083 18.5546875 21.09765625 C16.94013672 21.09282227 16.94013672 21.09282227 15.29296875 21.08789062 C14.16503906 21.07951172 13.03710938 21.07113281 11.875 21.0625 C10.73933594 21.05798828 9.60367188 21.05347656 8.43359375 21.04882812 C5.62237353 21.03701628 2.81118028 21.01908041 0 21 C0 14.07 0 7.14 0 0 Z " fill="#EFEFEF" transform="translate(206,79)"/>
<path d="M0 0 C2.97 0 5.94 0 9 0 C9 16.5 9 33 9 50 C6.03 50 3.06 50 0 50 C0 33.5 0 17 0 0 Z " fill="#111111" transform="translate(287,88)"/>
<path d="M0 0 C3.31209159 2.36577971 5.29642914 4.51911846 7.625 7.875 C7.625 9.195 7.625 10.515 7.625 11.875 C-2.935 11.875 -13.495 11.875 -24.375 11.875 C-23.22875767 6.14378834 -21.61351617 3.84218088 -17.3125 0.0625 C-11.68131815 -2.21393521 -5.70791538 -1.90263846 0 0 Z " fill="#EBEBEB" transform="translate(451.375,96.125)"/>
<path d="M0 0 C3.0625 0.3125 3.0625 0.3125 5 1.4375 C6.0625 3.3125 6.0625 3.3125 5.875 6.4375 C5.606875 7.38625 5.33875 8.335 5.0625 9.3125 C2.29999964 10.69375018 0.11518901 10.50329306 -2.9375 10.3125 C-4.9375 8.3125 -4.9375 8.3125 -5.1875 5.3125 C-4.84687504 1.2250005 -4.07761768 0.43378911 0 0 Z " fill="#070707" transform="translate(290.9375,67.6875)"/>
</svg>
